<svg width="127" height="21" viewBox="0 0 127 21" fill="none" xmlns="http://www.w3.org/2000/svg">
<mask id="path-1-inside-1_712_564" fill="white">
<path d="M14.8932 19.9358L14.8932 0.585941L18.4506 0.585941V19.9358L14.8932 19.9358Z"/>
<path d="M43.1455 20.2668C39.6341 20.2668 36.7808 17.4279 36.7808 13.9343V6.71821H40.4027V13.9343C40.4027 15.4407 41.636 16.6633 43.1455 16.6633C44.655 16.6633 45.8884 15.4362 45.8884 13.9343V6.69532H49.5102V13.9343C49.5102 17.4279 46.6569 20.2668 43.1455 20.2668Z"/>
<path d="M7.09715 20.5141C5.26551 20.5141 3.43847 19.8182 2.04862 18.4216C-0.703445 15.6515 -0.680436 11.1689 2.10385 8.4308C3.44307 7.11212 5.21489 6.38868 7.09715 6.38868C7.11096 6.38868 7.12017 6.38868 7.13398 6.38868C9.03005 6.39783 10.8111 7.13959 12.1457 8.48117L9.72957 10.8575C9.03465 10.157 8.10502 9.77238 7.11557 9.7678C6.21355 9.69912 5.19188 10.1433 4.48776 10.8346C3.03349 12.2632 3.02428 14.603 4.46015 16.0499C5.15507 16.7504 6.08469 17.135 7.07415 17.1396C7.07875 17.1396 7.08796 17.1396 7.09256 17.1396C8.07281 17.1396 9.00244 16.7596 9.69736 16.0727L12.0859 18.4766C10.7098 19.8365 8.90579 20.5141 7.09715 20.5141Z"/>
<path d="M27.6273 20.2718C23.7569 20.2718 20.609 17.14 20.609 13.2892C20.609 9.43851 23.7569 6.30664 27.6273 6.30664C31.4977 6.30664 34.6455 9.43851 34.6455 13.2892C34.6455 17.14 31.4931 20.2718 27.6273 20.2718ZM27.6273 9.68577C25.63 9.68577 24.0054 11.3021 24.0054 13.2892C24.0054 15.2764 25.63 16.8927 27.6273 16.8927C29.6246 16.8927 31.2491 15.2764 31.2491 13.2892C31.2491 11.3021 29.6246 9.68577 27.6273 9.68577Z"/>
<path d="M61.5816 0.585941V7.33961C60.5231 6.69858 59.2898 6.30939 57.9598 6.30939C54.0894 6.30939 50.9415 9.44126 50.9415 13.292C50.9415 17.1427 54.0894 20.2746 57.9598 20.2746C59.2898 20.2746 60.5185 19.8854 61.5816 19.2444V20.2746H65.1391V0.585941L61.5816 0.585941ZM57.9598 16.8955C55.9624 16.8955 54.3379 15.2792 54.3379 13.292C54.3379 11.3048 55.9624 9.68851 57.9598 9.68851C59.9571 9.68851 61.5816 11.3048 61.5816 13.292C61.5816 15.2792 59.9571 16.8955 57.9598 16.8955Z"/>
<path d="M92.1396 19.9415V6.79136L94.5143 6.79136L94.6064 8.61828C94.6064 8.61828 94.7628 6.56242 98.1362 6.40674C98.8541 6.37469 99.8113 6.52121 100.313 6.73641L99.5582 9.12195C99.2545 8.99832 98.7713 8.93422 98.104 8.93422C97.1651 8.93422 96.3552 9.30968 95.6648 10.0606C94.9745 10.8115 94.6248 11.6906 94.6248 12.6888V19.9415H92.1396Z"/>
<path d="M120.742 20.3717C118.8 20.3717 117.198 19.7077 115.942 18.3845C114.681 17.0612 114.055 15.39 114.055 13.3662C114.055 11.3607 114.667 9.69399 115.887 8.36157C117.111 7.03374 118.675 6.36524 120.581 6.36524C122.541 6.36524 124.101 6.99711 125.261 8.25626C126.421 9.51542 127.001 11.2782 127.001 13.5539L126.973 13.824L116.591 13.824C116.623 15.1152 117.056 16.15 117.884 16.9376C118.712 17.7251 119.702 18.1189 120.852 18.1189C122.431 18.1189 123.673 17.3314 124.571 15.7563L126.784 16.8277C126.186 17.9358 125.367 18.8057 124.313 19.433C123.259 20.0603 122.072 20.3717 120.742 20.3717ZM116.779 11.7819H124.359C124.285 10.8707 123.913 10.1152 123.241 9.51542C122.564 8.9156 121.662 8.61799 120.526 8.61799C119.591 8.61799 118.791 8.90187 118.114 9.47421C117.438 10.0466 116.996 10.8158 116.779 11.7819Z"/>
<path d="M72.2907 5.12906C72.2907 4.42851 72.484 3.8699 72.8706 3.44865C73.2572 3.02741 73.7542 2.81679 74.3663 2.81679C74.8817 2.81679 75.3419 2.92668 75.7607 3.12356V0.710558C75.3235 0.59609 74.8495 0.513672 74.2835 0.513672C72.9719 0.513672 71.8996 0.916602 71.062 1.71788C70.2244 2.52375 69.8056 3.58144 69.8056 4.88638V6.79115H68.586V9.04389H69.8056V19.9413H72.2861V9.04389H75.7423V6.79115H72.2861V5.12906H72.2907Z"/>
<path d="M83.3497 20.3311C79.4425 20.3311 76.2624 17.1717 76.2624 13.2798C76.2624 9.38786 79.4379 6.22852 83.3497 6.22852C87.2615 6.22852 90.437 9.38786 90.437 13.2798C90.437 17.1717 87.2569 20.3311 83.3497 20.3311ZM83.3497 8.64152C80.7771 8.64152 78.6832 10.7249 78.6832 13.2844C78.6832 15.8439 80.7771 17.9272 83.3497 17.9272C85.9223 17.9272 88.0162 15.8439 88.0162 13.2844C88.0162 10.7249 85.9223 8.64152 83.3497 8.64152Z"/>
<path d="M107.405 20.3311C103.498 20.3311 100.322 17.1717 100.322 13.2798C100.322 9.38786 103.498 6.22852 107.405 6.22852C109.296 6.22852 111.077 6.96112 112.416 8.29354L110.7 10.0014C109.821 9.12229 108.647 8.64152 107.405 8.64152C104.832 8.64152 102.743 10.7249 102.743 13.2844C102.743 15.8439 104.832 17.9272 107.405 17.9272C108.56 17.9272 109.669 17.506 110.53 16.7322L112.15 18.5179C110.847 19.6855 109.158 20.3311 107.405 20.3311Z"/>
</mask>
<path d="M14.8932 19.9358L14.8932 0.585941L18.4506 0.585941V19.9358L14.8932 19.9358Z" fill="white"/>
<path d="M43.1455 20.2668C39.6341 20.2668 36.7808 17.4279 36.7808 13.9343V6.71821H40.4027V13.9343C40.4027 15.4407 41.636 16.6633 43.1455 16.6633C44.655 16.6633 45.8884 15.4362 45.8884 13.9343V6.69532H49.5102V13.9343C49.5102 17.4279 46.6569 20.2668 43.1455 20.2668Z" fill="white"/>
<path d="M7.09715 20.5141C5.26551 20.5141 3.43847 19.8182 2.04862 18.4216C-0.703445 15.6515 -0.680436 11.1689 2.10385 8.4308C3.44307 7.11212 5.21489 6.38868 7.09715 6.38868C7.11096 6.38868 7.12017 6.38868 7.13398 6.38868C9.03005 6.39783 10.8111 7.13959 12.1457 8.48117L9.72957 10.8575C9.03465 10.157 8.10502 9.77238 7.11557 9.7678C6.21355 9.69912 5.19188 10.1433 4.48776 10.8346C3.03349 12.2632 3.02428 14.603 4.46015 16.0499C5.15507 16.7504 6.08469 17.135 7.07415 17.1396C7.07875 17.1396 7.08796 17.1396 7.09256 17.1396C8.07281 17.1396 9.00244 16.7596 9.69736 16.0727L12.0859 18.4766C10.7098 19.8365 8.90579 20.5141 7.09715 20.5141Z" fill="white"/>
<path d="M27.6273 20.2718C23.7569 20.2718 20.609 17.14 20.609 13.2892C20.609 9.43851 23.7569 6.30664 27.6273 6.30664C31.4977 6.30664 34.6455 9.43851 34.6455 13.2892C34.6455 17.14 31.4931 20.2718 27.6273 20.2718ZM27.6273 9.68577C25.63 9.68577 24.0054 11.3021 24.0054 13.2892C24.0054 15.2764 25.63 16.8927 27.6273 16.8927C29.6246 16.8927 31.2491 15.2764 31.2491 13.2892C31.2491 11.3021 29.6246 9.68577 27.6273 9.68577Z" fill="white"/>
<path d="M61.5816 0.585941V7.33961C60.5231 6.69858 59.2898 6.30939 57.9598 6.30939C54.0894 6.30939 50.9415 9.44126 50.9415 13.292C50.9415 17.1427 54.0894 20.2746 57.9598 20.2746C59.2898 20.2746 60.5185 19.8854 61.5816 19.2444V20.2746H65.1391V0.585941L61.5816 0.585941ZM57.9598 16.8955C55.9624 16.8955 54.3379 15.2792 54.3379 13.292C54.3379 11.3048 55.9624 9.68851 57.9598 9.68851C59.9571 9.68851 61.5816 11.3048 61.5816 13.292C61.5816 15.2792 59.9571 16.8955 57.9598 16.8955Z" fill="white"/>
<path d="M92.1396 19.9415V6.79136L94.5143 6.79136L94.6064 8.61828C94.6064 8.61828 94.7628 6.56242 98.1362 6.40674C98.8541 6.37469 99.8113 6.52121 100.313 6.73641L99.5582 9.12195C99.2545 8.99832 98.7713 8.93422 98.104 8.93422C97.1651 8.93422 96.3552 9.30968 95.6648 10.0606C94.9745 10.8115 94.6248 11.6906 94.6248 12.6888V19.9415H92.1396Z" fill="white"/>
<path d="M120.742 20.3717C118.8 20.3717 117.198 19.7077 115.942 18.3845C114.681 17.0612 114.055 15.39 114.055 13.3662C114.055 11.3607 114.667 9.69399 115.887 8.36157C117.111 7.03374 118.675 6.36524 120.581 6.36524C122.541 6.36524 124.101 6.99711 125.261 8.25626C126.421 9.51542 127.001 11.2782 127.001 13.5539L126.973 13.824L116.591 13.824C116.623 15.1152 117.056 16.15 117.884 16.9376C118.712 17.7251 119.702 18.1189 120.852 18.1189C122.431 18.1189 123.673 17.3314 124.571 15.7563L126.784 16.8277C126.186 17.9358 125.367 18.8057 124.313 19.433C123.259 20.0603 122.072 20.3717 120.742 20.3717ZM116.779 11.7819H124.359C124.285 10.8707 123.913 10.1152 123.241 9.51542C122.564 8.9156 121.662 8.61799 120.526 8.61799C119.591 8.61799 118.791 8.90187 118.114 9.47421C117.438 10.0466 116.996 10.8158 116.779 11.7819Z" fill="white"/>
<path d="M72.2907 5.12906C72.2907 4.42851 72.484 3.8699 72.8706 3.44865C73.2572 3.02741 73.7542 2.81679 74.3663 2.81679C74.8817 2.81679 75.3419 2.92668 75.7607 3.12356V0.710558C75.3235 0.59609 74.8495 0.513672 74.2835 0.513672C72.9719 0.513672 71.8996 0.916602 71.062 1.71788C70.2244 2.52375 69.8056 3.58144 69.8056 4.88638V6.79115H68.586V9.04389H69.8056V19.9413H72.2861V9.04389H75.7423V6.79115H72.2861V5.12906H72.2907Z" fill="white"/>
<path d="M83.3497 20.3311C79.4425 20.3311 76.2624 17.1717 76.2624 13.2798C76.2624 9.38786 79.4379 6.22852 83.3497 6.22852C87.2615 6.22852 90.437 9.38786 90.437 13.2798C90.437 17.1717 87.2569 20.3311 83.3497 20.3311ZM83.3497 8.64152C80.7771 8.64152 78.6832 10.7249 78.6832 13.2844C78.6832 15.8439 80.7771 17.9272 83.3497 17.9272C85.9223 17.9272 88.0162 15.8439 88.0162 13.2844C88.0162 10.7249 85.9223 8.64152 83.3497 8.64152Z" fill="white"/>
<path d="M107.405 20.3311C103.498 20.3311 100.322 17.1717 100.322 13.2798C100.322 9.38786 103.498 6.22852 107.405 6.22852C109.296 6.22852 111.077 6.96112 112.416 8.29354L110.7 10.0014C109.821 9.12229 108.647 8.64152 107.405 8.64152C104.832 8.64152 102.743 10.7249 102.743 13.2844C102.743 15.8439 104.832 17.9272 107.405 17.9272C108.56 17.9272 109.669 17.506 110.53 16.7322L112.15 18.5179C110.847 19.6855 109.158 20.3311 107.405 20.3311Z" fill="white"/>
<path d="M14.8932 19.9358L14.8932 0.585941L18.4506 0.585941V19.9358L14.8932 19.9358Z" stroke="white" stroke-width="2" mask="url(#path-1-inside-1_712_564)"/>
<path d="M43.1455 20.2668C39.6341 20.2668 36.7808 17.4279 36.7808 13.9343V6.71821H40.4027V13.9343C40.4027 15.4407 41.636 16.6633 43.1455 16.6633C44.655 16.6633 45.8884 15.4362 45.8884 13.9343V6.69532H49.5102V13.9343C49.5102 17.4279 46.6569 20.2668 43.1455 20.2668Z" stroke="white" stroke-width="2" mask="url(#path-1-inside-1_712_564)"/>
<path d="M7.09715 20.5141C5.26551 20.5141 3.43847 19.8182 2.04862 18.4216C-0.703445 15.6515 -0.680436 11.1689 2.10385 8.4308C3.44307 7.11212 5.21489 6.38868 7.09715 6.38868C7.11096 6.38868 7.12017 6.38868 7.13398 6.38868C9.03005 6.39783 10.8111 7.13959 12.1457 8.48117L9.72957 10.8575C9.03465 10.157 8.10502 9.77238 7.11557 9.7678C6.21355 9.69912 5.19188 10.1433 4.48776 10.8346C3.03349 12.2632 3.02428 14.603 4.46015 16.0499C5.15507 16.7504 6.08469 17.135 7.07415 17.1396C7.07875 17.1396 7.08796 17.1396 7.09256 17.1396C8.07281 17.1396 9.00244 16.7596 9.69736 16.0727L12.0859 18.4766C10.7098 19.8365 8.90579 20.5141 7.09715 20.5141Z" stroke="white" stroke-width="2" mask="url(#path-1-inside-1_712_564)"/>
<path d="M27.6273 20.2718C23.7569 20.2718 20.609 17.14 20.609 13.2892C20.609 9.43851 23.7569 6.30664 27.6273 6.30664C31.4977 6.30664 34.6455 9.43851 34.6455 13.2892C34.6455 17.14 31.4931 20.2718 27.6273 20.2718ZM27.6273 9.68577C25.63 9.68577 24.0054 11.3021 24.0054 13.2892C24.0054 15.2764 25.63 16.8927 27.6273 16.8927C29.6246 16.8927 31.2491 15.2764 31.2491 13.2892C31.2491 11.3021 29.6246 9.68577 27.6273 9.68577Z" stroke="white" stroke-width="2" mask="url(#path-1-inside-1_712_564)"/>
<path d="M61.5816 0.585941V7.33961C60.5231 6.69858 59.2898 6.30939 57.9598 6.30939C54.0894 6.30939 50.9415 9.44126 50.9415 13.292C50.9415 17.1427 54.0894 20.2746 57.9598 20.2746C59.2898 20.2746 60.5185 19.8854 61.5816 19.2444V20.2746H65.1391V0.585941L61.5816 0.585941ZM57.9598 16.8955C55.9624 16.8955 54.3379 15.2792 54.3379 13.292C54.3379 11.3048 55.9624 9.68851 57.9598 9.68851C59.9571 9.68851 61.5816 11.3048 61.5816 13.292C61.5816 15.2792 59.9571 16.8955 57.9598 16.8955Z" stroke="white" stroke-width="2" mask="url(#path-1-inside-1_712_564)"/>
<path d="M92.1396 19.9415V6.79136L94.5143 6.79136L94.6064 8.61828C94.6064 8.61828 94.7628 6.56242 98.1362 6.40674C98.8541 6.37469 99.8113 6.52121 100.313 6.73641L99.5582 9.12195C99.2545 8.99832 98.7713 8.93422 98.104 8.93422C97.1651 8.93422 96.3552 9.30968 95.6648 10.0606C94.9745 10.8115 94.6248 11.6906 94.6248 12.6888V19.9415H92.1396Z" stroke="white" stroke-width="2" mask="url(#path-1-inside-1_712_564)"/>
<path d="M120.742 20.3717C118.8 20.3717 117.198 19.7077 115.942 18.3845C114.681 17.0612 114.055 15.39 114.055 13.3662C114.055 11.3607 114.667 9.69399 115.887 8.36157C117.111 7.03374 118.675 6.36524 120.581 6.36524C122.541 6.36524 124.101 6.99711 125.261 8.25626C126.421 9.51542 127.001 11.2782 127.001 13.5539L126.973 13.824L116.591 13.824C116.623 15.1152 117.056 16.15 117.884 16.9376C118.712 17.7251 119.702 18.1189 120.852 18.1189C122.431 18.1189 123.673 17.3314 124.571 15.7563L126.784 16.8277C126.186 17.9358 125.367 18.8057 124.313 19.433C123.259 20.0603 122.072 20.3717 120.742 20.3717ZM116.779 11.7819H124.359C124.285 10.8707 123.913 10.1152 123.241 9.51542C122.564 8.9156 121.662 8.61799 120.526 8.61799C119.591 8.61799 118.791 8.90187 118.114 9.47421C117.438 10.0466 116.996 10.8158 116.779 11.7819Z" stroke="white" stroke-width="2" mask="url(#path-1-inside-1_712_564)"/>
<path d="M72.2907 5.12906C72.2907 4.42851 72.484 3.8699 72.8706 3.44865C73.2572 3.02741 73.7542 2.81679 74.3663 2.81679C74.8817 2.81679 75.3419 2.92668 75.7607 3.12356V0.710558C75.3235 0.59609 74.8495 0.513672 74.2835 0.513672C72.9719 0.513672 71.8996 0.916602 71.062 1.71788C70.2244 2.52375 69.8056 3.58144 69.8056 4.88638V6.79115H68.586V9.04389H69.8056V19.9413H72.2861V9.04389H75.7423V6.79115H72.2861V5.12906H72.2907Z" stroke="white" stroke-width="2" mask="url(#path-1-inside-1_712_564)"/>
<path d="M83.3497 20.3311C79.4425 20.3311 76.2624 17.1717 76.2624 13.2798C76.2624 9.38786 79.4379 6.22852 83.3497 6.22852C87.2615 6.22852 90.437 9.38786 90.437 13.2798C90.437 17.1717 87.2569 20.3311 83.3497 20.3311ZM83.3497 8.64152C80.7771 8.64152 78.6832 10.7249 78.6832 13.2844C78.6832 15.8439 80.7771 17.9272 83.3497 17.9272C85.9223 17.9272 88.0162 15.8439 88.0162 13.2844C88.0162 10.7249 85.9223 8.64152 83.3497 8.64152Z" stroke="white" stroke-width="2" mask="url(#path-1-inside-1_712_564)"/>
<path d="M107.405 20.3311C103.498 20.3311 100.322 17.1717 100.322 13.2798C100.322 9.38786 103.498 6.22852 107.405 6.22852C109.296 6.22852 111.077 6.96112 112.416 8.29354L110.7 10.0014C109.821 9.12229 108.647 8.64152 107.405 8.64152C104.832 8.64152 102.743 10.7249 102.743 13.2844C102.743 15.8439 104.832 17.9272 107.405 17.9272C108.56 17.9272 109.669 17.506 110.53 16.7322L112.15 18.5179C110.847 19.6855 109.158 20.3311 107.405 20.3311Z" stroke="white" stroke-width="2" mask="url(#path-1-inside-1_712_564)"/>
</svg>
